<?xml version="1.0" encoding="UTF-8"?>
<svg width="18px" height="27px" viewBox="0 0 18 27" version="1.1" xmlns="http://www.w3.org/2000/svg" xmlns:xlink="http://www.w3.org/1999/xlink">
    <!-- Generator: Sketch 52.4 (67378) - http://www.bohemiancoding.com/sketch -->
    <title>Group</title>
    <desc>Created with Sketch.</desc>
    <g id="Page-1" stroke="none" stroke-width="1" fill="none" fill-rule="evenodd">
        <g id="GDG_DevFest_Swag_ToteBag" transform="translate(-71.000000, -389.000000)" fill="#FFFFFF">
            <g id="g3726" transform="translate(384.000000, 384.000000) scale(-1, 1) rotate(-180.000000) translate(-384.000000, -384.000000) translate(0.000000, -0.000000)">
                <g id="g3728">
                    <g id="g3730-Clipped">
                        <g id="g3730" transform="translate(26.666666, 117.333330)">
                            <g id="Group" transform="translate(44.000000, 234.000000)">
                                <g id="g3882" transform="translate(0.563866, 0.248661)">
                                    <polygon id="path3884" points="9.6666664 9.3333331 7.55999979 12.6546664 0.0573333069 0.878666645 4.3253332 0.878666645"></polygon>
                                </g>
                                <g id="g3886" transform="translate(5.534532, 0.565061)">
                                    <polygon id="path3888" points="5.3333332 7.9999998 0.655999984 0.562666653 4.74266655 0.562666653 7.36933315 4.86133321"></polygon>
                                </g>
                                <g id="g3890" transform="translate(0.682266, 6.092394)">
                                    <polygon id="path3892" points="4.3333332 21.3333328 0.0946666393 21.3333328 12.941333 0.501333321 14.9639996 3.77066657"></polygon>
                                </g>
                                <g id="g3894" transform="translate(5.501332, 10.342394)">
                                    <path d="M11.9999997,5.3333332 L4.80799988,17.0839996 L0.825333313,17.0839996 L10.8106664,0.67066665 L11.9999997,2.5866666 C12.2439997,2.98533326 12.3706664,3.45999991 12.3706664,3.96266657 C12.3706664,4.46266656 12.2439997,4.93733321 11.9999997,5.3333332" id="path3896"></path>
                                </g>
                            </g>
                        </g>
                    </g>
                </g>
            </g>
        </g>
    </g>
</svg>