<?xml version="1.0" encoding="UTF-8"?>
<svg width="730px" height="258px" viewBox="0 0 730 258" version="1.1" xmlns="http://www.w3.org/2000/svg" xmlns:xlink="http://www.w3.org/1999/xlink">
    <!-- Generator: Sketch 52.4 (67378) - http://www.bohemiancoding.com/sketch -->
    <title>gdg_springfield</title>
    <desc>Created with Sketch.</desc>
    <defs>
        <path d="M289.17,225.68 C273.376588,225.68 258.8484,221.961704 245.585,214.525 C232.3216,207.088296 221.780039,196.815066 213.96,183.705 C206.139961,170.594934 202.23,155.913415 202.23,139.66 C202.23,123.406585 206.139961,108.725066 213.96,95.615 C221.780039,82.5049345 232.3216,72.2317038 245.585,64.795 C258.8484,57.3582962 273.376588,53.64 289.17,53.64 C302.050064,53.64 313.81828,55.901644 324.475,60.425 C335.13172,64.9483559 344.293295,71.3499586 351.96,79.63 L330.57,100.56 C325.049972,94.7333042 318.955033,90.3633479 312.285,87.45 C305.614967,84.5366521 297.833378,83.08 288.94,83.08 C278.819949,83.08 269.543375,85.4183099 261.11,90.095 C252.676625,94.77169 245.968358,101.441623 240.985,110.105 C236.001642,118.768377 233.51,128.619945 233.51,139.66 C233.51,150.700055 236.039975,160.551623 241.1,169.215 C246.160025,177.878377 252.944957,184.54831 261.455,189.225 C269.965043,193.90169 279.279949,196.24 289.4,196.24 C304.73341,196.24 317.306618,191.716712 327.12,182.67 C330.186682,179.909986 332.869988,176.383355 335.17,172.09 C337.470011,167.796645 339.156661,163.120025 340.23,158.06 L288.48,158.06 L288.48,131.61 L369.21,131.61 C370.283339,135.903355 370.82,140.733306 370.82,146.1 C370.82,156.986721 369.171683,167.10662 365.875,176.46 C362.578317,185.81338 357.5567,194.016631 350.81,201.07 C343.449963,209.043373 334.556719,215.138312 324.13,219.355 C313.703281,223.571688 302.050064,225.68 289.17,225.68 Z M400.49,57.32 L456.15,57.32 C473.323419,57.32 488.27327,60.7699655 501,67.67 C513.72673,74.5700345 523.539965,84.2299379 530.44,96.65 C537.340035,109.070062 540.79,123.406585 540.79,139.66 C540.79,155.913415 537.340035,170.249938 530.44,182.67 C523.539965,195.090062 513.72673,204.749966 501,211.65 C488.27327,218.550035 473.323419,222 456.15,222 L400.49,222 L400.49,57.32 Z M454.77,192.56 C472.556756,192.56 486.12662,187.845047 495.48,178.415 C504.83338,168.984953 509.51,156.066749 509.51,139.66 C509.51,123.253251 504.83338,110.335047 495.48,100.905 C486.12662,91.4749528 472.556756,86.76 454.77,86.76 L431.54,86.76 L431.54,192.56 L454.77,192.56 Z M648.89,225.68 C633.096588,225.68 618.5684,221.961704 605.305,214.525 C592.0416,207.088296 581.500039,196.815066 573.68,183.705 C565.859961,170.594934 561.95,155.913415 561.95,139.66 C561.95,123.406585 565.859961,108.725066 573.68,95.615 C581.500039,82.5049345 592.0416,72.2317038 605.305,64.795 C618.5684,57.3582962 633.096588,53.64 648.89,53.64 C661.770064,53.64 673.53828,55.901644 684.195,60.425 C694.85172,64.9483559 704.013295,71.3499586 711.68,79.63 L690.29,100.56 C684.769972,94.7333042 678.675033,90.3633479 672.005,87.45 C665.334967,84.5366521 657.553378,83.08 648.66,83.08 C638.539949,83.08 629.263376,85.4183099 620.83,90.095 C612.396625,94.77169 605.688358,101.441623 600.705,110.105 C595.721642,118.768377 593.23,128.619945 593.23,139.66 C593.23,150.700055 595.759975,160.551623 600.82,169.215 C605.880025,177.878377 612.664957,184.54831 621.175,189.225 C629.685043,193.90169 638.999949,196.24 649.12,196.24 C664.45341,196.24 677.026618,191.716712 686.84,182.67 C689.906682,179.909986 692.589989,176.383355 694.89,172.09 C697.190011,167.796645 698.876661,163.120025 699.95,158.06 L648.2,158.06 L648.2,131.61 L728.93,131.61 C730.003339,135.903355 730.54,140.733306 730.54,146.1 C730.54,156.986721 728.891683,167.10662 725.595,176.46 C722.298317,185.81338 717.2767,194.016631 710.53,201.07 C703.169963,209.043373 694.276719,215.138312 683.85,219.355 C673.423281,223.571688 661.770064,225.68 648.89,225.68 Z" id="path-1"></path>
        <path d="M349.38,282.64 C346.873321,282.64 344.66001,281.93334 342.74,280.52 C340.81999,279.10666 339.473337,277.10668 338.7,274.52 L343.78,272.52 C344.180002,274.040008 344.859995,275.253329 345.82,276.16 C346.780005,277.066671 347.979993,277.52 349.42,277.52 C350.620006,277.52 351.646662,277.220003 352.5,276.62 C353.353338,276.019997 353.78,275.186672 353.78,274.12 C353.78,273.053328 353.373337,272.180003 352.56,271.5 C351.746663,270.819997 350.30001,270.093337 348.22,269.32 L346.46,268.68 C344.619991,268.039997 343.046673,267.060007 341.74,265.74 C340.433327,264.419993 339.78,262.76001 339.78,260.76 C339.78,259.266659 340.166663,257.906673 340.94,256.68 C341.713337,255.453327 342.80666,254.48667 344.22,253.78 C345.63334,253.07333 347.233324,252.72 349.02,252.72 C351.60668,252.72 353.646659,253.326661 355.14,254.54 C356.633341,255.753339 357.659997,257.173325 358.22,258.8 L353.46,260.8 C353.166665,259.919996 352.653337,259.180003 351.92,258.58 C351.186663,257.979997 350.246672,257.68 349.1,257.68 C347.926661,257.68 346.960004,257.953331 346.2,258.5 C345.439996,259.046669 345.06,259.759996 345.06,260.64 C345.06,261.493338 345.419996,262.219997 346.14,262.82 C346.860004,263.420003 348.046658,263.999997 349.7,264.56 L351.5,265.16 C353.980012,266.013338 355.879993,267.139993 357.2,268.54 C358.520007,269.940007 359.18,271.773322 359.18,274.04 C359.18,275.906676 358.700005,277.48666 357.74,278.78 C356.779995,280.07334 355.546674,281.039997 354.04,281.68 C352.533326,282.320003 350.980008,282.64 349.38,282.64 Z M364.3,253.36 L374.38,253.36 C376.193342,253.36 377.846659,253.739996 379.34,254.5 C380.833341,255.260004 382.006662,256.32666 382.86,257.7 C383.713338,259.07334 384.14,260.639991 384.14,262.4 C384.14,264.160009 383.713338,265.733326 382.86,267.12 C382.006662,268.506674 380.833341,269.579996 379.34,270.34 C377.846659,271.100004 376.193342,271.48 374.38,271.48 L369.7,271.48 L369.7,282 L364.3,282 L364.3,253.36 Z M374.54,266.36 C375.87334,266.36 376.919996,265.973337 377.68,265.2 C378.440004,264.426663 378.82,263.493339 378.82,262.4 C378.82,261.306661 378.440004,260.380004 377.68,259.62 C376.919996,258.859996 375.87334,258.48 374.54,258.48 L369.7,258.48 L369.7,266.36 L374.54,266.36 Z M388.7,253.36 L399.14,253.36 C401.006676,253.36 402.666659,253.746663 404.12,254.52 C405.573341,255.293337 406.699996,256.36666 407.5,257.74 C408.300004,259.11334 408.7,260.666658 408.7,262.4 C408.7,264.240009 408.120006,265.873326 406.96,267.3 C405.799994,268.726674 404.340009,269.759997 402.58,270.4 L402.54,270.68 L410.22,281.68 L410.22,282 L404.02,282 L396.62,271.24 L394.1,271.24 L394.1,282 L388.7,282 L388.7,253.36 Z M399.1,266.28 C400.326673,266.28 401.326663,265.90667 402.1,265.16 C402.873337,264.41333 403.26,263.466672 403.26,262.32 C403.26,261.226661 402.893337,260.293337 402.16,259.52 C401.426663,258.746663 400.43334,258.36 399.18,258.36 L394.1,258.36 L394.1,266.28 L399.1,266.28 Z M414.06,253.36 L419.46,253.36 L419.46,282 L414.06,282 L414.06,253.36 Z M425.98,253.36 L432.26,253.36 L443.78,272.56 L444.1,272.56 L443.78,267.04 L443.78,253.36 L449.14,253.36 L449.14,282 L443.46,282 L431.3,261.72 L430.98,261.72 L431.3,267.24 L431.3,282 L425.98,282 L425.98,253.36 Z M469.34,282.64 C466.59332,282.64 464.066678,281.99334 461.76,280.7 C459.453322,279.40666 457.620007,277.620011 456.26,275.34 C454.899993,273.059989 454.22,270.506681 454.22,267.68 C454.22,264.853319 454.899993,262.300011 456.26,260.02 C457.620007,257.739989 459.453322,255.95334 461.76,254.66 C464.066678,253.36666 466.59332,252.72 469.34,252.72 C471.580011,252.72 473.626657,253.113329 475.48,253.9 C477.333343,254.686671 478.92666,255.799993 480.26,257.24 L476.54,260.88 C475.579995,259.866662 474.520006,259.106669 473.36,258.6 C472.199994,258.093331 470.846674,257.84 469.3,257.84 C467.539991,257.84 465.926674,258.246663 464.46,259.06 C462.993326,259.873337 461.826671,261.033326 460.96,262.54 C460.093329,264.046674 459.66,265.75999 459.66,267.68 C459.66,269.60001 460.099996,271.313326 460.98,272.82 C461.860004,274.326674 463.039993,275.486663 464.52,276.3 C466.000007,277.113337 467.619991,277.52 469.38,277.52 C472.04668,277.52 474.233325,276.733341 475.94,275.16 C476.473336,274.679998 476.939998,274.06667 477.34,273.32 C477.740002,272.57333 478.033332,271.760004 478.22,270.88 L469.22,270.88 L469.22,266.28 L483.26,266.28 C483.446668,267.02667 483.54,267.866662 483.54,268.8 C483.54,270.693343 483.253336,272.453325 482.68,274.08 C482.106664,275.706675 481.233339,277.133327 480.06,278.36 C478.779994,279.746674 477.233342,280.806663 475.42,281.54 C473.606658,282.273337 471.580011,282.64 469.34,282.64 Z M488.7,253.36 L506.86,253.36 L506.86,258.48 L494.1,258.48 L494.1,265.44 L505.58,265.44 L505.58,270.56 L494.1,270.56 L494.1,282 L488.7,282 L488.7,253.36 Z M511.62,253.36 L517.02,253.36 L517.02,282 L511.62,282 L511.62,253.36 Z M523.54,253.36 L541.7,253.36 L541.7,258.48 L528.94,258.48 L528.94,265.12 L540.42,265.12 L540.42,270.24 L528.94,270.24 L528.94,276.88 L541.7,276.88 L541.7,282 L523.54,282 L523.54,253.36 Z M547.26,253.36 L552.66,253.36 L552.66,276.88 L564.78,276.88 L564.78,282 L547.26,282 L547.26,253.36 Z M569.3,253.36 L578.98,253.36 C581.966682,253.36 584.566656,253.959994 586.78,255.16 C588.993344,256.360006 590.699994,258.039989 591.9,260.2 C593.100006,262.360011 593.7,264.853319 593.7,267.68 C593.7,270.506681 593.100006,272.999989 591.9,275.16 C590.699994,277.320011 588.993344,278.999994 586.78,280.2 C584.566656,281.400006 581.966682,282 578.98,282 L569.3,282 L569.3,253.36 Z M578.74,276.88 C581.833349,276.88 584.193325,276.060008 585.82,274.42 C587.446675,272.779992 588.26,270.533348 588.26,267.68 C588.26,264.826652 587.446675,262.580008 585.82,260.94 C584.193325,259.299992 581.833349,258.48 578.74,258.48 L574.7,258.48 L574.7,276.88 L578.74,276.88 Z" id="path-2"></path>
    </defs>
    <g id="Page-1" stroke="none" stroke-width="1" fill="none" fill-rule="evenodd">
        <g id="gdg_springfield" transform="translate(-1.000000, -25.000000)">
            <g id="GDG">
                <use fill="#000000" xlink:href="#path-1"></use>
                <use fill="#FFFFFE" xlink:href="#path-1"></use>
            </g>
            <g id="SPRINGFIELD">
                <use fill="#000000" xlink:href="#path-2"></use>
                <use fill="#FFFFFE" xlink:href="#path-2"></use>
            </g>
            <g id="angle_white" transform="translate(0.000000, 24.000000)" fill="#FFFFFF">
                <g id="g3726" transform="translate(74.000000, 112.500000) scale(-1, 1) rotate(-180.000000) translate(-74.000000, -112.500000) ">
                    <g id="g3728">
                        <g id="g3730-Clipped">
                            <g id="g3730" transform="translate(0.599994, 0.799972)">
                                <g id="Group" transform="translate(0.000000, 0.000000)">
                                    <g id="g3882" transform="translate(0.736474, 1.088752)">
                                        <polygon id="path3884" points="81.1999978 71.399998 63.5039982 99.2991978 0.481599778 0.380799818 36.3327989 0.380799818"></polygon>
                                    </g>
                                    <g id="g3886" transform="translate(47.490069, 0.746512)">
                                        <polygon id="path3888" points="39.7999989 63.1999983 0.510399866 0.726399885 34.838399 0.726399885 56.9023985 36.835199"></polygon>
                                    </g>
                                    <g id="g3890" transform="translate(1.731034, 47.176110)">
                                        <polygon id="path3892" points="36.3999989 175.199996 0.79519977 175.199996 108.707197 0.211199896 125.697597 27.6735992"></polygon>
                                    </g>
                                    <g id="g3894" transform="translate(48.211189, 83.876110)">
                                        <path d="M94.7999975,39.7999989 L34.387199,138.505597 L0.932799829,138.505597 L84.8095978,0.63359986 L94.7999975,16.7279994 C96.8495975,20.0767994 97.9135978,24.0639992 97.9135978,28.2863992 C97.9135978,32.4863991 96.8495975,36.473599 94.7999975,39.7999989" id="path3896"></path>
                                    </g>
                                </g>
                            </g>
                        </g>
                    </g>
                </g>
            </g>
        </g>
    </g>
</svg>