<?xml version="1.0" encoding="UTF-8"?>
<svg width="188px" height="70px" viewBox="0 0 188 70" version="1.1" xmlns="http://www.w3.org/2000/svg" xmlns:xlink="http://www.w3.org/1999/xlink">
    <!-- Generator: Sketch 52.4 (67378) - http://www.bohemiancoding.com/sketch -->
    <title>Logo</title>
    <desc>Created with Sketch.</desc>
    <g id="Layout" stroke="none" stroke-width="1" fill="none" fill-rule="evenodd">
        <g id="1440-Home" transform="translate(-26.000000, -93.000000)" fill="#FFFFFE">
            <g id="Logo-Block">
                <g id="Logo" transform="translate(26.000000, 93.000000)">
                    <g>
                        <polygon id="bar1" points="143.16192 0.00032183908 142.02912 1.13802299 175.58112 34.882046 142.02912 68.626069 143.16192 69.7645747 176.71232 36.0205517 186.14272 45.5043448 187.27392 44.3658391 177.84432 34.882046 187.27392 25.3990575 186.14272 24.2605517 176.71312 33.7443448"></polygon>
                        <polygon id="bar2" points="44.11296 0.00032183908 10.56096 33.7443448 1.13216 24.2605517 0.00016 25.3990575 9.42976 34.882046 0.00016 44.3658391 1.13216 45.5043448 10.56096 36.0205517 44.11296 69.7645747 45.24416 68.626069 11.69296 34.882046 45.24416 1.13802299"></polygon>
                        <g id="logotype" transform="translate(40.000000, 15.856448)">
                            <path d="M1.04912,7.16268966 C1.04912,8.45004598 1.43312,9.64165517 2.26592,10.5106207 C3.64192,11.8945287 6.68272,12.6669425 15.61232,13.1175172 C24.95792,13.535908 26.91072,14.2125747 27.80672,15.1137241 C28.47872,15.8217701 28.63872,16.6907356 28.63872,17.624069 C28.63872,18.5903908 28.38272,19.555908 27.61472,20.3283218 C26.65392,21.2938391 24.34992,22.5168276 16.18832,22.5168276 C10.10672,22.5168276 3.80192,21.2616552 0.24912,19.7811954 L0.24912,21.5834943 C3.86592,23.0647586 9.56352,24.1590115 16.12432,24.1590115 C25.21392,24.1590115 27.90272,22.6785517 29.21472,21.3582069 C30.23872,20.3283218 30.62272,18.8478621 30.62272,17.4953333 C30.62272,16.1757931 30.33472,14.8884368 29.40672,13.9542989 C28.06272,12.6025747 25.85392,11.8301609 16.02832,11.3474023 C7.45072,10.9290115 4.92192,10.3167126 3.89792,9.28682759 C3.35392,8.77188506 3.06592,8.03165517 3.06592,7.03395402 C3.06592,6.00406897 3.35392,5.10211494 3.99392,4.45843678 C5.17792,3.26763218 7.83472,2.39866667 14.84432,2.39866667 C20.12512,2.39866667 25.34192,3.36418391 28.86272,4.61935632 L28.86272,2.81705747 C25.88592,1.78717241 20.89312,0.725103448 14.84432,0.725103448 C7.35472,0.725103448 3.99392,1.85154023 2.45792,3.39636782 C1.43312,4.42625287 1.04912,5.77878161 1.04912,7.16268966" id="Fill-3"></path>
                            <path d="M70.53584,12.2487931 L51.71664,12.2487931 L51.71664,13.9545402 L68.51984,13.9545402 C68.51984,15.5645402 68.48704,17.8174138 66.72704,19.5561494 C64.71184,21.6159195 60.77424,22.5492529 54.50144,22.5492529 C46.75584,22.5492529 43.36304,20.9722414 41.50704,19.1377586 C40.00224,17.6243103 39.07424,15.4028161 39.07424,12.4418966 C39.07424,9.44798851 40.06704,7.25948276 41.60304,5.68166667 C43.45904,3.815 46.59584,2.36591954 53.86144,2.36591954 C60.03824,2.36591954 65.47904,3.52534483 68.67984,5.19890805 L68.67984,3.23488506 C65.95904,1.97971264 60.64624,0.660172414 53.86144,0.660172414 C45.69984,0.660172414 42.08304,2.49465517 39.97024,4.6195977 C38.01824,6.58281609 37.08944,9.35143678 37.08944,12.4418966 C37.08944,15.5967241 38.05024,18.3323563 39.97024,20.2312069 C42.08304,22.3561494 45.82784,24.2236207 54.50144,24.2236207 C61.41504,24.2236207 65.86384,23.0963793 68.23184,20.6825862 C70.05584,18.8481034 70.53584,16.4978736 70.53584,13.8258046 L70.53584,12.2487931 Z" id="Fill-5"></path>
                            <polygon id="Fill-7" points="81.196 13.5362299 106.5768 13.5362299 106.5768 11.8296782 81.196 11.8296782 81.196 2.88174713 107.0248 2.88174713 107.0248 1.1751954 79.2112 1.1751954 79.2112 23.7087586 81.196 23.7087586"></polygon>
                            <polygon id="Fill-9" points="16.48664 35.1833678 15.37944 31.8507241 13.39944 31.8507241 12.29144 35.1833678 11.32104 31.8708391 8.91944 31.8708391 11.16424 38.820954 13.16424 38.820954 14.36984 35.3901494 15.57544 38.820954 17.57464 38.820954 19.81944 31.8708391 17.45784 31.8708391"></polygon>
                            <polygon id="Fill-11" points="27.41712 36.1294138 30.76912 36.1294138 30.76912 34.4638966 27.41712 34.4638966 27.41712 33.7638966 31.01472 33.7638966 31.01472 31.8706782 25.16352 31.8706782 25.16352 38.7717126 31.06432 38.7717126 31.06432 36.8792989 27.41712 36.8792989"></polygon>
                            <path d="M41.0132,36.5238276 C41.0132,36.8199195 40.7588,37.0267011 40.2588,37.0267011 L39.1116,37.0267011 L39.1116,36.0016437 L40.2676,36.0016437 C40.7676,36.0016437 41.0132,36.2084253 41.0132,36.5045172 L41.0132,36.5238276 Z M39.1116,33.6160115 L40.1012,33.6160115 C40.5916,33.6160115 40.8364,33.7833678 40.8364,34.0891149 L40.8364,34.1092299 C40.8364,34.4141724 40.6012,34.5823333 40.1116,34.5823333 L39.1116,34.5823333 L39.1116,33.6160115 Z M41.8652,35.1640575 C42.6004,34.9073908 43.0916,34.4045172 43.0916,33.5862414 L43.0916,33.5661264 C43.0916,33.093023 42.9148,32.7381954 42.6692,32.4919885 C42.2676,32.0872759 41.6692,31.8708391 40.7188,31.8708391 L36.8764,31.8708391 L36.8764,38.7718736 L40.6796,38.7718736 C42.4148,38.7718736 43.3164,37.9632529 43.3164,36.8593448 L43.3164,36.8400345 C43.3164,35.893023 42.7476,35.4199195 41.8652,35.1640575 Z" id="Fill-13"></path>
                            <path d="M60.5116,35.331092 C60.5116,36.3263793 59.8356,36.7600575 58.7868,36.7600575 L58.4044,36.7600575 L58.4044,33.8820115 L58.7868,33.8820115 C59.8356,33.8820115 60.5116,34.3156897 60.5116,35.3117816 L60.5116,35.331092 Z M58.7372,31.8705172 L56.1108,31.8705172 L56.1108,38.7715517 L58.6596,38.7715517 C61.4332,38.7715517 62.8252,37.3232759 62.8252,35.2812069 L62.8252,35.2618966 C62.8252,33.2214368 61.462,31.8705172 58.7372,31.8705172 Z" id="Fill-15"></path>
                            <polygon id="Fill-17" points="70.72648 36.1294138 74.07848 36.1294138 74.07848 34.4638966 70.72648 34.4638966 70.72648 33.7638966 74.32328 33.7638966 74.32328 31.8706782 68.47208 31.8706782 68.47208 38.7717126 74.37288 38.7717126 74.37288 36.8792989 70.72648 36.8792989"></polygon>
                            <polygon id="Fill-19" points="83.4452 35.7451379 82.1116 31.871 79.5436 31.871 82.3276 38.8211149 84.5236 38.8211149 87.3068 31.871 84.778 31.871"></polygon>
                            <path d="M95.42416,34.315931 C94.69856,34.1775402 94.51216,34.0592644 94.51216,33.8717931 L94.51216,33.8524828 C94.51216,33.6851264 94.66976,33.566046 95.01216,33.566046 C95.64976,33.566046 96.42416,33.7736322 97.07136,34.2467356 L98.18816,32.6890345 C97.39456,32.0582299 96.41376,31.7428276 95.09056,31.7428276 C93.19936,31.7428276 92.17936,32.7582299 92.17936,34.0689195 L92.17936,34.0890345 C92.17936,35.5477701 93.53216,35.991908 95.07136,36.3073103 C95.80656,36.4545517 96.02176,36.5631724 96.02176,36.7602989 L96.02176,36.7804138 C96.02176,36.9678851 95.84496,37.0765057 95.43456,37.0765057 C94.63056,37.0765057 93.77696,36.839954 93.03296,36.2678851 L91.80736,37.7370805 C92.67936,38.5054713 93.93456,38.8997241 95.32576,38.8997241 C97.16896,38.8997241 98.35456,38.0130575 98.35456,36.5631724 L98.35456,36.5438621 C98.35456,35.1535172 97.17856,34.6409885 95.42416,34.315931" id="Fill-21"></path>
                        </g>
                    </g>
                </g>
            </g>
        </g>
    </g>
</svg>